<?xml version="1.0" encoding="utf-8" standalone="no"?>
<!DOCTYPE svg PUBLIC "-//W3C//DTD SVG 1.1//EN"
  "http://www.w3.org/Graphics/SVG/1.1/DTD/svg11.dtd">
<svg xmlns:xlink="http://www.w3.org/1999/xlink" width="485.723437pt" height="367.517344pt" viewBox="0 0 485.723437 367.517344" xmlns="http://www.w3.org/2000/svg" version="1.1">
 <metadata>
  <rdf:RDF xmlns:dc="http://purl.org/dc/elements/1.1/" xmlns:cc="http://creativecommons.org/ns#" xmlns:rdf="http://www.w3.org/1999/02/22-rdf-syntax-ns#">
   <cc:Work>
    <dc:type rdf:resource="http://purl.org/dc/dcmitype/StillImage"/>
    <dc:date>2026-07-04T22:39:50.702363</dc:date>
    <dc:format>image/svg+xml</dc:format>
    <dc:creator>
     <cc:Agent>
      <dc:title>Matplotlib v3.8.2, https://matplotlib.org/</dc:title>
     </cc:Agent>
    </dc:creator>
   </cc:Work>
  </rdf:RDF>
 </metadata>
 <defs>
  <style type="text/css">*{stroke-linejoin: round; stroke-linecap: butt}</style>
 </defs>
 <g id="figure_1">
  <g id="patch_1">
   <path d="M 0 367.517344 
L 485.723437 367.517344 
L 485.723437 0 
L 0 0 
z
" style="fill: #ffffff"/>
  </g>
  <g id="axes_1">
   <g id="patch_2">
    <path d="M 28.942188 343.639219 
L 475.342187 343.639219 
L 475.342187 10.999219 
L 28.942188 10.999219 
z
" style="fill: #ffffff"/>
   </g>
   <g id="patch_3">
    <path d="M 103.342187 288.199219 
L 400.942187 288.199219 
L 400.942187 66.439219 
L 103.342187 66.439219 
z
" clip-path="url(#pd9698fc4b9)" style="fill: #abc5b8"/>
   </g>
   <g id="matplotlib.axis_1">
    <g id="xtick_1">
     <g id="line2d_1">
      <defs>
       <path id="m3f83051d40" d="M 0 0 
L 0 3.5 
" style="stroke: #000000; stroke-width: 0.8"/>
      </defs>
      <g>
       <use xlink:href="#m3f83051d40" x="28.942187" y="343.639219" style="stroke: #000000; stroke-width: 0.8"/>
      </g>
     </g>
     <g id="text_1">
      <!-- −3 -->
      <g transform="translate(21.571094 358.237656) scale(0.1 -0.1)">
       <defs>
        <path id="DejaVuSans-2212" d="M 678 2272 
L 4684 2272 
L 4684 1741 
L 678 1741 
L 678 2272 
z
" transform="scale(0.015625)"/>
        <path id="DejaVuSans-33" d="M 2597 2516 
Q 3050 2419 3304 2112 
Q 3559 1806 3559 1356 
Q 3559 666 3084 287 
Q 2609 -91 1734 -91 
Q 1441 -91 1130 -33 
Q 819 25 488 141 
L 488 750 
Q 750 597 1062 519 
Q 1375 441 1716 441 
Q 2309 441 2620 675 
Q 2931 909 2931 1356 
Q 2931 1769 2642 2001 
Q 2353 2234 1838 2234 
L 1294 2234 
L 1294 2753 
L 1863 2753 
Q 2328 2753 2575 2939 
Q 2822 3125 2822 3475 
Q 2822 3834 2567 4026 
Q 2313 4219 1838 4219 
Q 1578 4219 1281 4162 
Q 984 4106 628 3988 
L 628 4550 
Q 988 4650 1302 4700 
Q 1616 4750 1894 4750 
Q 2613 4750 3031 4423 
Q 3450 4097 3450 3541 
Q 3450 3153 3228 2886 
Q 3006 2619 2597 2516 
z
" transform="scale(0.015625)"/>
       </defs>
       <use xlink:href="#DejaVuSans-2212"/>
       <use xlink:href="#DejaVuSans-33" x="83.789062"/>
      </g>
     </g>
    </g>
    <g id="xtick_2">
     <g id="line2d_2">
      <g>
       <use xlink:href="#m3f83051d40" x="103.342187" y="343.639219" style="stroke: #000000; stroke-width: 0.8"/>
      </g>
     </g>
     <g id="text_2">
      <!-- −2 -->
      <g transform="translate(95.971094 358.237656) scale(0.1 -0.1)">
       <defs>
        <path id="DejaVuSans-32" d="M 1228 531 
L 3431 531 
L 3431 0 
L 469 0 
L 469 531 
Q 828 903 1448 1529 
Q 2069 2156 2228 2338 
Q 2531 2678 2651 2914 
Q 2772 3150 2772 3378 
Q 2772 3750 2511 3984 
Q 2250 4219 1831 4219 
Q 1534 4219 1204 4116 
Q 875 4013 500 3803 
L 500 4441 
Q 881 4594 1212 4672 
Q 1544 4750 1819 4750 
Q 2544 4750 2975 4387 
Q 3406 4025 3406 3419 
Q 3406 3131 3298 2873 
Q 3191 2616 2906 2266 
Q 2828 2175 2409 1742 
Q 1991 1309 1228 531 
z
" transform="scale(0.015625)"/>
       </defs>
       <use xlink:href="#DejaVuSans-2212"/>
       <use xlink:href="#DejaVuSans-32" x="83.789062"/>
      </g>
     </g>
    </g>
    <g id="xtick_3">
     <g id="line2d_3">
      <g>
       <use xlink:href="#m3f83051d40" x="177.742188" y="343.639219" style="stroke: #000000; stroke-width: 0.8"/>
      </g>
     </g>
     <g id="text_3">
      <!-- −1 -->
      <g transform="translate(170.371094 358.237656) scale(0.1 -0.1)">
       <defs>
        <path id="DejaVuSans-31" d="M 794 531 
L 1825 531 
L 1825 4091 
L 703 3866 
L 703 4441 
L 1819 4666 
L 2450 4666 
L 2450 531 
L 3481 531 
L 3481 0 
L 794 0 
L 794 531 
z
" transform="scale(0.015625)"/>
       </defs>
       <use xlink:href="#DejaVuSans-2212"/>
       <use xlink:href="#DejaVuSans-31" x="83.789062"/>
      </g>
     </g>
    </g>
    <g id="xtick_4">
     <g id="line2d_4">
      <g>
       <use xlink:href="#m3f83051d40" x="252.142187" y="343.639219" style="stroke: #000000; stroke-width: 0.8"/>
      </g>
     </g>
     <g id="text_4">
      <!-- 0 -->
      <g transform="translate(248.960937 358.237656) scale(0.1 -0.1)">
       <defs>
        <path id="DejaVuSans-30" d="M 2034 4250 
Q 1547 4250 1301 3770 
Q 1056 3291 1056 2328 
Q 1056 1369 1301 889 
Q 1547 409 2034 409 
Q 2525 409 2770 889 
Q 3016 1369 3016 2328 
Q 3016 3291 2770 3770 
Q 2525 4250 2034 4250 
z
M 2034 4750 
Q 2819 4750 3233 4129 
Q 3647 3509 3647 2328 
Q 3647 1150 3233 529 
Q 2819 -91 2034 -91 
Q 1250 -91 836 529 
Q 422 1150 422 2328 
Q 422 3509 836 4129 
Q 1250 4750 2034 4750 
z
" transform="scale(0.015625)"/>
       </defs>
       <use xlink:href="#DejaVuSans-30"/>
      </g>
     </g>
    </g>
    <g id="xtick_5">
     <g id="line2d_5">
      <g>
       <use xlink:href="#m3f83051d40" x="326.542187" y="343.639219" style="stroke: #000000; stroke-width: 0.8"/>
      </g>
     </g>
     <g id="text_5">
      <!-- 1 -->
      <g transform="translate(323.360937 358.237656) scale(0.1 -0.1)">
       <use xlink:href="#DejaVuSans-31"/>
      </g>
     </g>
    </g>
    <g id="xtick_6">
     <g id="line2d_6">
      <g>
       <use xlink:href="#m3f83051d40" x="400.942187" y="343.639219" style="stroke: #000000; stroke-width: 0.8"/>
      </g>
     </g>
     <g id="text_6">
      <!-- 2 -->
      <g transform="translate(397.760937 358.237656) scale(0.1 -0.1)">
       <use xlink:href="#DejaVuSans-32"/>
      </g>
     </g>
    </g>
    <g id="xtick_7">
     <g id="line2d_7">
      <g>
       <use xlink:href="#m3f83051d40" x="475.342187" y="343.639219" style="stroke: #000000; stroke-width: 0.8"/>
      </g>
     </g>
     <g id="text_7">
      <!-- 3 -->
      <g transform="translate(472.160937 358.237656) scale(0.1 -0.1)">
       <use xlink:href="#DejaVuSans-33"/>
      </g>
     </g>
    </g>
   </g>
   <g id="matplotlib.axis_2">
    <g id="ytick_1">
     <g id="line2d_8">
      <defs>
       <path id="mc50f879e64" d="M 0 0 
L -3.5 0 
" style="stroke: #000000; stroke-width: 0.8"/>
      </defs>
      <g>
       <use xlink:href="#mc50f879e64" x="28.942188" y="343.639219" style="stroke: #000000; stroke-width: 0.8"/>
      </g>
     </g>
     <g id="text_8">
      <!-- −2 -->
      <g transform="translate(7.2 347.438438) scale(0.1 -0.1)">
       <use xlink:href="#DejaVuSans-2212"/>
       <use xlink:href="#DejaVuSans-32" x="83.789062"/>
      </g>
     </g>
    </g>
    <g id="ytick_2">
     <g id="line2d_9">
      <g>
       <use xlink:href="#mc50f879e64" x="28.942188" y="288.199219" style="stroke: #000000; stroke-width: 0.8"/>
      </g>
     </g>
     <g id="text_9">
      <!-- −1 -->
      <g transform="translate(7.2 291.998438) scale(0.1 -0.1)">
       <use xlink:href="#DejaVuSans-2212"/>
       <use xlink:href="#DejaVuSans-31" x="83.789062"/>
      </g>
     </g>
    </g>
    <g id="ytick_3">
     <g id="line2d_10">
      <g>
       <use xlink:href="#mc50f879e64" x="28.942188" y="232.759219" style="stroke: #000000; stroke-width: 0.8"/>
      </g>
     </g>
     <g id="text_10">
      <!-- 0 -->
      <g transform="translate(15.579688 236.558437) scale(0.1 -0.1)">
       <use xlink:href="#DejaVuSans-30"/>
      </g>
     </g>
    </g>
    <g id="ytick_4">
     <g id="line2d_11">
      <g>
       <use xlink:href="#mc50f879e64" x="28.942188" y="177.319219" style="stroke: #000000; stroke-width: 0.8"/>
      </g>
     </g>
     <g id="text_11">
      <!-- 1 -->
      <g transform="translate(15.579688 181.118437) scale(0.1 -0.1)">
       <use xlink:href="#DejaVuSans-31"/>
      </g>
     </g>
    </g>
    <g id="ytick_5">
     <g id="line2d_12">
      <g>
       <use xlink:href="#mc50f879e64" x="28.942188" y="121.879219" style="stroke: #000000; stroke-width: 0.8"/>
      </g>
     </g>
     <g id="text_12">
      <!-- 2 -->
      <g transform="translate(15.579688 125.678438) scale(0.1 -0.1)">
       <use xlink:href="#DejaVuSans-32"/>
      </g>
     </g>
    </g>
    <g id="ytick_6">
     <g id="line2d_13">
      <g>
       <use xlink:href="#mc50f879e64" x="28.942188" y="66.439219" style="stroke: #000000; stroke-width: 0.8"/>
      </g>
     </g>
     <g id="text_13">
      <!-- 3 -->
      <g transform="translate(15.579688 70.238438) scale(0.1 -0.1)">
       <use xlink:href="#DejaVuSans-33"/>
      </g>
     </g>
    </g>
    <g id="ytick_7">
     <g id="line2d_14">
      <g>
       <use xlink:href="#mc50f879e64" x="28.942188" y="10.999219" style="stroke: #000000; stroke-width: 0.8"/>
      </g>
     </g>
     <g id="text_14">
      <!-- 4 -->
      <g transform="translate(15.579688 14.798437) scale(0.1 -0.1)">
       <defs>
        <path id="DejaVuSans-34" d="M 2419 4116 
L 825 1625 
L 2419 1625 
L 2419 4116 
z
M 2253 4666 
L 3047 4666 
L 3047 1625 
L 3713 1625 
L 3713 1100 
L 3047 1100 
L 3047 0 
L 2419 0 
L 2419 1100 
L 313 1100 
L 313 1709 
L 2253 4666 
z
" transform="scale(0.015625)"/>
       </defs>
       <use xlink:href="#DejaVuSans-34"/>
      </g>
     </g>
    </g>
   </g>
   <g id="patch_4">
    <path d="M 181.997195 251.239219 
L 182.058524 251.367974 
L 182.12028 251.496617 
L 182.18246 251.625145 
L 182.245066 251.753559 
L 182.308096 251.881858 
L 182.37155 252.01004 
L 182.435427 252.138106 
L 182.499728 252.266054 
L 182.564452 252.393883 
L 182.629599 252.521594 
L 182.695168 252.649184 
L 182.761158 252.776653 
L 182.82757 252.904001 
L 182.894403 253.031227 
L 182.961657 253.158329 
L 183.02933 253.285308 
L 183.097423 253.412161 
L 183.165936 253.53889 
L 183.234867 253.665492 
L 183.304217 253.791967 
L 183.373986 253.918315 
L 183.444171 254.044534 
L 183.514774 254.170623 
L 183.585794 254.296583 
L 183.65723 254.422412 
L 183.729082 254.548109 
L 183.801349 254.673674 
L 183.874032 254.799106 
L 183.947129 254.924404 
L 184.02064 255.049568 
L 184.094565 255.174596 
L 184.168904 255.299488 
L 184.243655 255.424243 
L 184.318818 255.54886 
L 184.394393 255.673339 
L 184.47038 255.797679 
L 184.546778 255.921879 
L 184.623586 256.045938 
L 184.700805 256.169856 
L 184.778433 256.293632 
L 184.85647 256.417264 
L 184.934915 256.540753 
L 185.013769 256.664098 
L 185.093031 256.787298 
L 185.172699 256.910351 
L 185.252775 257.033258 
L 185.333257 257.156017 
L 185.414144 257.278628 
L 185.495437 257.401091 
L 185.577134 257.523403 
L 185.659236 257.645566 
L 185.741741 257.767577 
L 185.82465 257.889436 
L 185.907961 258.011143 
L 185.991675 258.132696 
L 186.075791 258.254095 
L 186.160307 258.37534 
L 186.245225 258.496428 
L 186.330542 258.617361 
L 186.41626 258.738136 
L 186.502376 258.858754 
L 186.588891 258.979213 
L 186.675804 259.099513 
L 186.763115 259.219653 
L 186.850823 259.339632 
L 186.938928 259.45945 
L 187.027428 259.579106 
L 187.116324 259.698598 
L 187.205615 259.817928 
L 187.2953 259.937092 
L 187.385379 260.056092 
L 187.475851 260.174926 
L 187.566716 260.293594 
L 187.657973 260.412094 
L 187.749622 260.530426 
L 187.841662 260.64859 
L 187.934092 260.766584 
L 188.026912 260.884408 
L 188.120122 261.002062 
L 188.213721 261.119544 
L 188.307707 261.236853 
L 188.402082 261.35399 
L 188.496843 261.470953 
L 188.591991 261.587742 
L 188.687525 261.704355 
L 188.783445 261.820793 
L 188.879749 261.937054 
L 188.976437 262.053138 
L 189.073509 262.169045 
L 189.170964 262.284772 
L 189.268802 262.40032 
L 189.367021 262.515689 
L 189.465622 262.630876 
L 189.564603 262.745882 
L 189.663964 262.860706 
L 189.763705 262.975347 
L 189.863824 263.089805 
L 189.964322 263.204079 
L 190.065197 263.318167 
L 190.16645 263.43207 
L 190.268079 263.545787 
L 190.370083 263.659316 
L 190.472463 263.772659 
L 190.575217 263.885812 
L 190.678345 263.998777 
L 190.781847 264.111552 
L 190.885721 264.224136 
L 190.989967 264.33653 
L 191.094584 264.448732 
L 191.199572 264.560741 
L 191.304931 264.672557 
L 191.410659 264.784179 
L 191.516755 264.895607 
L 191.62322 265.006839 
L 191.730052 265.117876 
L 191.837252 265.228716 
L 191.944817 265.339359 
L 192.052748 265.449805 
L 192.161044 265.560051 
L 192.269705 265.670099 
L 192.378729 265.779946 
L 192.488116 265.889593 
L 192.597865 265.999039 
L 192.707976 266.108283 
L 192.818447 266.217325 
L 192.929279 266.326163 
L 193.040471 266.434797 
L 193.152022 266.543227 
L 193.26393 266.651452 
L 193.376197 266.75947 
L 193.48882 266.867283 
L 193.6018 266.974888 
L 193.715135 267.082285 
L 193.828825 267.189474 
L 193.942869 267.296454 
L 194.057266 267.403224 
L 194.172016 267.509784 
L 194.287119 267.616133 
L 194.402572 267.722269 
L 194.518377 267.828194 
L 194.634531 267.933906 
L 194.751035 268.039404 
L 194.867887 268.144687 
L 194.985087 268.249756 
L 195.102634 268.35461 
L 195.220527 268.459247 
L 195.338766 268.563667 
L 195.457351 268.66787 
L 195.576279 268.771855 
L 195.695551 268.875621 
L 195.815166 268.979168 
L 195.935123 269.082494 
L 196.055421 269.185601 
L 196.17606 269.288485 
L 196.297038 269.391149 
L 196.418356 269.493589 
L 196.540012 269.595807 
L 196.662006 269.697801 
L 196.784337 269.79957 
L 196.907005 269.901115 
L 197.030007 270.002433 
L 197.153344 270.103526 
L 197.277016 270.204392 
L 197.40102 270.305031 
L 197.525357 270.405441 
L 197.650026 270.505623 
L 197.775025 270.605576 
L 197.900355 270.705299 
L 198.026014 270.804791 
L 198.152002 270.904052 
L 198.278317 271.003082 
L 198.40496 271.101879 
L 198.531929 271.200444 
L 198.659224 271.298775 
L 198.786844 271.396872 
L 198.914787 271.494734 
L 199.043054 271.592361 
L 199.171643 271.689753 
L 199.300555 271.786908 
L 199.429786 271.883825 
L 199.559339 271.980506 
L 199.68921 272.076948 
L 199.8194 272.173151 
L 199.949908 272.269115 
L 200.080732 272.364839 
L 200.211873 272.460322 
L 200.34333 272.555564 
L 200.475101 272.650565 
L 200.607185 272.745323 
L 200.739583 272.839838 
L 200.872293 272.934111 
L 201.005314 273.028139 
L 201.138646 273.121922 
L 201.272287 273.21546 
L 201.406238 273.308753 
L 201.540496 273.401799 
L 201.675062 273.494599 
L 201.809934 273.587151 
L 201.945112 273.679455 
L 202.080595 273.771511 
L 202.216382 273.863318 
L 202.352472 273.954875 
L 202.488865 274.046182 
L 202.625559 274.137238 
L 202.762554 274.228042 
L 202.899849 274.318595 
L 203.037442 274.408896 
L 203.175334 274.498943 
L 203.313524 274.588737 
L 203.45201 274.678277 
L 203.590791 274.767563 
L 203.729868 274.856593 
L 203.869238 274.945368 
L 204.008902 275.033886 
L 204.148858 275.122148 
L 204.289105 275.210153 
L 204.429644 275.297899 
L 204.570471 275.385387 
L 204.711588 275.472617 
L 204.852993 275.559587 
L 204.994685 275.646297 
L 205.136663 275.732747 
L 205.278927 275.818935 
L 205.421476 275.904862 
L 205.564308 275.990527 
L 205.707423 276.07593 
L 205.85082 276.161069 
L 205.994498 276.245945 
L 206.138457 276.330557 
L 206.282694 276.414904 
L 206.427211 276.498986 
L 206.572005 276.582803 
L 206.717076 276.666353 
L 206.862422 276.749636 
L 207.008044 276.832653 
L 207.153939 276.915402 
L 207.300108 276.997882 
L 207.44655 277.080094 
L 207.593262 277.162037 
L 207.740246 277.24371 
L 207.887499 277.325113 
L 208.03502 277.406245 
L 208.18281 277.487106 
L 208.330867 277.567696 
L 208.479189 277.648013 
L 208.627777 277.728058 
L 208.776629 277.807829 
L 208.925744 277.887327 
L 209.075122 277.966551 
L 209.224762 278.045501 
L 209.374662 278.124175 
L 209.524822 278.202574 
L 209.67524 278.280697 
L 209.825917 278.358543 
L 209.976851 278.436113 
L 210.12804 278.513405 
L 210.279485 278.590419 
L 210.431184 278.667155 
L 210.583136 278.743612 
L 210.735341 278.81979 
L 210.887797 278.895688 
L 211.040504 278.971306 
L 211.19346 279.046643 
L 211.346666 279.121699 
L 211.500118 279.196474 
L 211.653818 279.270966 
L 211.807764 279.345176 
L 211.961954 279.419103 
L 212.116389 279.492747 
L 212.271066 279.566107 
L 212.425986 279.639182 
L 212.581147 279.711973 
L 212.736548 279.784479 
L 212.892189 279.856699 
L 213.048068 279.928634 
L 213.204184 280.000281 
L 213.360537 280.071642 
L 213.517125 280.142715 
L 213.673948 280.213501 
L 213.831005 280.283999 
L 213.988294 280.354207 
L 214.145815 280.424127 
L 214.303567 280.493758 
L 214.461548 280.563098 
L 214.619758 280.632148 
L 214.778197 280.700907 
L 214.936862 280.769376 
L 215.095753 280.837552 
L 215.254869 280.905437 
L 215.414209 280.973029 
L 215.573772 281.040329 
L 215.733557 281.107335 
L 215.893564 281.174047 
L 216.05379 281.240466 
L 216.214236 281.30659 
L 216.3749 281.372419 
L 216.535781 281.437953 
L 216.696878 281.503192 
L 216.858191 281.568134 
L 217.019718 281.63278 
L 217.181458 281.697129 
L 217.343411 281.761181 
L 217.505574 281.824935 
L 217.667949 281.888392 
L 217.830532 281.95155 
L 217.993324 282.014409 
L 218.156324 282.076969 
L 218.319529 282.13923 
L 218.48294 282.20119 
L 218.646556 282.262851 
L 218.810375 282.32421 
L 218.974397 282.385269 
L 219.138619 282.446027 
L 219.303043 282.506482 
L 219.467665 282.566636 
L 219.632487 282.626487 
L 219.797505 282.686035 
L 219.96272 282.74528 
L 220.128131 282.804221 
L 220.293736 282.862858 
L 220.459534 282.921191 
L 220.625525 282.97922 
L 220.791707 283.036943 
L 220.95808 283.094362 
L 221.124642 283.151474 
L 221.291392 283.20828 
L 221.45833 283.26478 
L 221.625454 283.320974 
L 221.792763 283.37686 
L 221.960257 283.432439 
L 222.127934 283.48771 
L 222.295793 283.542673 
L 222.463833 283.597327 
L 222.632054 283.651673 
L 222.800454 283.70571 
L 222.969032 283.759437 
L 223.137788 283.812855 
L 223.306719 283.865962 
L 223.475826 283.918759 
L 223.645107 283.971246 
L 223.81456 284.023421 
L 223.984186 284.075285 
L 224.153983 284.126838 
L 224.32395 284.178078 
L 224.494086 284.229006 
L 224.664389 284.279622 
L 224.83486 284.329925 
L 225.005496 284.379914 
L 225.176298 284.42959 
L 225.347263 284.478952 
L 225.51839 284.528 
L 225.68968 284.576734 
L 225.86113 284.625153 
L 226.032739 284.673257 
L 226.204508 284.721046 
L 226.376433 284.768519 
L 226.548516 284.815676 
L 226.720753 284.862518 
L 226.893145 284.909042 
L 227.065691 284.95525 
L 227.238388 285.001141 
L 227.411237 285.046715 
L 227.584237 285.091971 
L 227.757385 285.13691 
L 227.930681 285.18153 
L 228.104125 285.225832 
L 228.277714 285.269815 
L 228.451448 285.313479 
L 228.625327 285.356824 
L 228.799348 285.39985 
L 228.97351 285.442556 
L 229.147814 285.484942 
L 229.322257 285.527008 
L 229.496839 285.568754 
L 229.671558 285.610178 
L 229.846414 285.651282 
L 230.021405 285.692064 
L 230.19653 285.732525 
L 230.371789 285.772665 
L 230.54718 285.812482 
L 230.722702 285.851977 
L 230.898355 285.89115 
L 231.074136 285.93 
L 231.250045 285.968527 
L 231.426081 286.006731 
L 231.602243 286.044611 
L 231.77853 286.082168 
L 231.95494 286.119402 
L 232.131473 286.156311 
L 232.308127 286.192895 
L 232.484902 286.229156 
L 232.661796 286.265091 
L 232.838809 286.300702 
L 233.015939 286.335987 
L 233.193185 286.370947 
L 233.370546 286.405581 
L 233.548021 286.43989 
L 233.725609 286.473873 
L 233.903309 286.507529 
L 234.081119 286.540859 
L 234.259039 286.573862 
L 234.437068 286.606539 
L 234.615205 286.638888 
L 234.793448 286.670911 
L 234.971796 286.702605 
L 235.150248 286.733973 
L 235.328804 286.765012 
L 235.507462 286.795724 
L 235.686221 286.826107 
L 235.865079 286.856162 
L 236.044037 286.885888 
L 236.223092 286.915286 
L 236.402245 286.944355 
L 236.581492 286.973094 
L 236.760834 287.001505 
L 236.94027 287.029586 
L 237.119798 287.057337 
L 237.299417 287.084759 
L 237.479126 287.11185 
L 237.658925 287.138612 
L 237.838811 287.165043 
L 238.018784 287.191144 
L 238.198843 287.216915 
L 238.378987 287.242354 
L 238.559214 287.267463 
L 238.739524 287.292241 
L 238.919915 287.316687 
L 239.100386 287.340803 
L 239.280937 287.364586 
L 239.461565 287.388038 
L 239.642271 287.411159 
L 239.823053 287.433947 
L 240.003909 287.456404 
L 240.184839 287.478528 
L 240.365842 287.50032 
L 240.546916 287.521779 
L 240.728061 287.542906 
L 240.909275 287.5637 
L 241.090557 287.584161 
L 241.271907 287.604289 
L 241.453322 287.624085 
L 241.634802 287.643547 
L 241.816347 287.662675 
L 241.997953 287.681471 
L 242.179622 287.699932 
L 242.361351 287.71806 
L 242.543139 287.735855 
L 242.724986 287.753315 
L 242.90689 287.770441 
L 243.08885 287.787234 
L 243.270864 287.803692 
L 243.452933 287.819816 
L 243.635055 287.835605 
L 243.817228 287.85106 
L 243.999452 287.86618 
L 244.181725 287.880966 
L 244.364047 287.895417 
L 244.546415 287.909533 
L 244.72883 287.923314 
L 244.91129 287.93676 
L 245.093794 287.949871 
L 245.276341 287.962647 
L 245.458929 287.975087 
L 245.641558 287.987193 
L 245.824227 287.998962 
L 246.006934 288.010397 
L 246.189678 288.021495 
L 246.372458 288.032259 
L 246.555273 288.042686 
L 246.738122 288.052778 
L 246.921004 288.062534 
L 247.103918 288.071954 
L 247.286863 288.081038 
L 247.469836 288.089786 
L 247.652839 288.098198 
L 247.835868 288.106274 
L 248.018924 288.114014 
L 248.202004 288.121418 
L 248.385109 288.128485 
L 248.568236 288.135216 
L 248.751385 288.141611 
L 248.934555 288.14767 
L 249.117744 288.153392 
L 249.300952 288.158778 
L 249.484177 288.163827 
L 249.667418 288.16854 
L 249.850674 288.172916 
L 250.033943 288.176956 
L 250.217226 288.180659 
L 250.400521 288.184026 
L 250.583826 288.187056 
L 250.76714 288.189749 
L 250.950463 288.192106 
L 251.133793 288.194126 
L 251.317129 288.19581 
L 251.50047 288.197156 
L 251.683815 288.198167 
L 251.867163 288.19884 
L 252.050512 288.199177 
L 252.233863 288.199177 
L 252.417212 288.19884 
L 252.60056 288.198167 
L 252.783905 288.197156 
L 252.967246 288.19581 
L 253.150582 288.194126 
L 253.333912 288.192106 
L 253.517235 288.189749 
L 253.700549 288.187056 
L 253.883854 288.184026 
L 254.067149 288.180659 
L 254.250432 288.176956 
L 254.433701 288.172916 
L 254.616957 288.16854 
L 254.800198 288.163827 
L 254.983423 288.158778 
L 255.166631 288.153392 
L 255.34982 288.14767 
L 255.53299 288.141611 
L 255.716139 288.135216 
L 255.899266 288.128485 
L 256.082371 288.121418 
L 256.265451 288.114014 
L 256.448507 288.106274 
L 256.631536 288.098198 
L 256.814539 288.089786 
L 256.997512 288.081038 
L 257.180457 288.071954 
L 257.363371 288.062534 
L 257.546253 288.052778 
L 257.729102 288.042686 
L 257.911917 288.032259 
L 258.094697 288.021495 
L 258.277441 288.010397 
L 258.460148 287.998962 
L 258.642817 287.987193 
L 258.825446 287.975087 
L 259.008034 287.962647 
L 259.190581 287.949871 
L 259.373085 287.93676 
L 259.555545 287.923314 
L 259.73796 287.909533 
L 259.920328 287.895417 
L 260.10265 287.880966 
L 260.284923 287.86618 
L 260.467147 287.85106 
L 260.64932 287.835605 
L 260.831442 287.819816 
L 261.013511 287.803692 
L 261.195525 287.787234 
L 261.377485 287.770441 
L 261.559389 287.753315 
L 261.741236 287.735855 
L 261.923024 287.71806 
L 262.104753 287.699932 
L 262.286422 287.681471 
L 262.468028 287.662675 
L 262.649573 287.643547 
L 262.831053 287.624085 
L 263.012468 287.604289 
L 263.193818 287.584161 
L 263.3751 287.5637 
L 263.556314 287.542906 
L 263.737459 287.521779 
L 263.918533 287.50032 
L 264.099536 287.478528 
L 264.280466 287.456404 
L 264.461322 287.433947 
L 264.642104 287.411159 
L 264.82281 287.388038 
L 265.003438 287.364586 
L 265.183989 287.340803 
L 265.36446 287.316687 
L 265.544851 287.292241 
L 265.725161 287.267463 
L 265.905388 287.242354 
L 266.085532 287.216915 
L 266.265591 287.191144 
L 266.445564 287.165043 
L 266.62545 287.138612 
L 266.805249 287.11185 
L 266.984958 287.084759 
L 267.164577 287.057337 
L 267.344105 287.029586 
L 267.523541 287.001505 
L 267.702883 286.973094 
L 267.88213 286.944355 
L 268.061283 286.915286 
L 268.240338 286.885888 
L 268.419296 286.856162 
L 268.598154 286.826107 
L 268.776913 286.795724 
L 268.955571 286.765012 
L 269.134127 286.733973 
L 269.312579 286.702605 
L 269.490927 286.670911 
L 269.66917 286.638888 
L 269.847307 286.606539 
L 270.025336 286.573862 
L 270.203256 286.540859 
L 270.381066 286.507529 
L 270.558766 286.473873 
L 270.736354 286.43989 
L 270.913829 286.405581 
L 271.09119 286.370947 
L 271.268436 286.335987 
L 271.445566 286.300702 
L 271.622579 286.265091 
L 271.799473 286.229156 
L 271.976248 286.192895 
L 272.152902 286.156311 
L 272.329435 286.119402 
L 272.505845 286.082168 
L 272.682132 286.044611 
L 272.858294 286.006731 
L 273.03433 285.968527 
L 273.210239 285.93 
L 273.38602 285.89115 
L 273.561673 285.851977 
L 273.737195 285.812482 
L 273.912586 285.772665 
L 274.087845 285.732525 
L 274.26297 285.692064 
L 274.437961 285.651282 
L 274.612817 285.610178 
L 274.787536 285.568754 
L 274.962118 285.527008 
L 275.136561 285.484942 
L 275.310865 285.442556 
L 275.485027 285.39985 
L 275.659048 285.356824 
L 275.832927 285.313479 
L 276.006661 285.269815 
L 276.18025 285.225832 
L 276.353694 285.18153 
L 276.52699 285.13691 
L 276.700138 285.091971 
L 276.873138 285.046715 
L 277.045987 285.001141 
L 277.218684 284.95525 
L 277.39123 284.909042 
L 277.563622 284.862518 
L 277.735859 284.815676 
L 277.907942 284.768519 
L 278.079867 284.721046 
L 278.251636 284.673257 
L 278.423245 284.625153 
L 278.594695 284.576734 
L 278.765985 284.528 
L 278.937112 284.478952 
L 279.108077 284.42959 
L 279.278879 284.379914 
L 279.449515 284.329925 
L 279.619986 284.279622 
L 279.790289 284.229006 
L 279.960425 284.178078 
L 280.130392 284.126838 
L 280.300189 284.075285 
L 280.469815 284.023421 
L 280.639268 283.971246 
L 280.808549 283.918759 
L 280.977656 283.865962 
L 281.146587 283.812855 
L 281.315343 283.759437 
L 281.483921 283.70571 
L 281.652321 283.651673 
L 281.820542 283.597327 
L 281.988582 283.542673 
L 282.156441 283.48771 
L 282.324118 283.432439 
L 282.491612 283.37686 
L 282.658921 283.320974 
L 282.826045 283.26478 
L 282.992983 283.20828 
L 283.159733 283.151474 
L 283.326295 283.094362 
L 283.492668 283.036943 
L 283.65885 282.97922 
L 283.824841 282.921191 
L 283.990639 282.862858 
L 284.156244 282.804221 
L 284.321655 282.74528 
L 284.48687 282.686035 
L 284.651888 282.626487 
L 284.81671 282.566636 
L 284.981332 282.506482 
L 285.145756 282.446027 
L 285.309978 282.385269 
L 285.474 282.32421 
L 285.637819 282.262851 
L 285.801435 282.20119 
L 285.964846 282.13923 
L 286.128051 282.076969 
L 286.291051 282.014409 
L 286.453843 281.95155 
L 286.616426 281.888392 
L 286.778801 281.824935 
L 286.940964 281.761181 
L 287.102917 281.697129 
L 287.264657 281.63278 
L 287.426184 281.568134 
L 287.587497 281.503192 
L 287.748594 281.437953 
L 287.909475 281.372419 
L 288.070139 281.30659 
L 288.230585 281.240466 
L 288.390811 281.174047 
L 288.550818 281.107335 
L 288.710603 281.040329 
L 288.870166 280.973029 
L 289.029506 280.905437 
L 289.188622 280.837552 
L 289.347513 280.769376 
L 289.506178 280.700907 
L 289.664617 280.632148 
L 289.822827 280.563098 
L 289.980808 280.493758 
L 290.13856 280.424127 
L 290.296081 280.354207 
L 290.45337 280.283999 
L 290.610427 280.213501 
L 290.76725 280.142715 
L 290.923838 280.071642 
L 291.080191 280.000281 
L 291.236307 279.928634 
L 291.392186 279.856699 
L 291.547827 279.784479 
L 291.703228 279.711973 
L 291.858389 279.639182 
L 292.013309 279.566107 
L 292.167986 279.492747 
L 292.322421 279.419103 
L 292.476611 279.345176 
L 292.630557 279.270966 
L 292.784257 279.196474 
L 292.937709 279.121699 
L 293.090915 279.046643 
L 293.243871 278.971306 
L 293.396578 278.895688 
L 293.549034 278.81979 
L 293.701239 278.743612 
L 293.853191 278.667155 
L 294.00489 278.590419 
L 294.156335 278.513405 
L 294.307524 278.436113 
L 294.458458 278.358543 
L 294.609135 278.280697 
L 294.759553 278.202574 
L 294.909713 278.124175 
L 295.059613 278.045501 
L 295.209253 277.966551 
L 295.358631 277.887327 
L 295.507746 277.807829 
L 295.656598 277.728058 
L 295.805186 277.648013 
L 295.953508 277.567696 
L 296.101565 277.487106 
L 296.249355 277.406245 
L 296.396876 277.325113 
L 296.544129 277.24371 
L 296.691113 277.162037 
L 296.837825 277.080094 
L 296.984267 276.997882 
L 297.130436 276.915402 
L 297.276331 276.832653 
L 297.421953 276.749636 
L 297.567299 276.666353 
L 297.71237 276.582803 
L 297.857164 276.498986 
L 298.001681 276.414904 
L 298.145918 276.330557 
L 298.289877 276.245945 
L 298.433555 276.161069 
L 298.576952 276.07593 
L 298.720067 275.990527 
L 298.862899 275.904862 
L 299.005448 275.818935 
L 299.147712 275.732747 
L 299.28969 275.646297 
L 299.431382 275.559587 
L 299.572787 275.472617 
L 299.713904 275.385387 
L 299.854731 275.297899 
L 299.99527 275.210153 
L 300.135517 275.122148 
L 300.275473 275.033886 
L 300.415137 274.945368 
L 300.554507 274.856593 
L 300.693584 274.767563 
L 300.832365 274.678277 
L 300.970851 274.588737 
L 301.109041 274.498943 
L 301.246933 274.408896 
L 301.384526 274.318595 
L 301.521821 274.228042 
L 301.658816 274.137238 
L 301.79551 274.046182 
L 301.931903 273.954875 
L 302.067993 273.863318 
L 302.20378 273.771511 
L 302.339263 273.679455 
L 302.474441 273.587151 
L 302.609313 273.494599 
L 302.743879 273.401799 
L 302.878137 273.308753 
L 303.012088 273.21546 
L 303.145729 273.121922 
L 303.279061 273.028139 
L 303.412082 272.934111 
L 303.544792 272.839838 
L 303.67719 272.745323 
L 303.809274 272.650565 
L 303.941045 272.555564 
L 304.072502 272.460322 
L 304.203643 272.364839 
L 304.334467 272.269115 
L 304.464975 272.173151 
L 304.595165 272.076948 
L 304.725036 271.980506 
L 304.854589 271.883825 
L 304.98382 271.786908 
L 305.112732 271.689753 
L 305.241321 271.592361 
L 305.369588 271.494734 
L 305.497531 271.396872 
L 305.625151 271.298775 
L 305.752446 271.200444 
L 305.879415 271.101879 
L 306.006058 271.003082 
L 306.132373 270.904052 
L 306.258361 270.804791 
L 306.38402 270.705299 
L 306.50935 270.605576 
L 306.634349 270.505623 
L 306.759018 270.405441 
L 306.883355 270.305031 
L 307.007359 270.204392 
L 307.131031 270.103526 
L 307.254368 270.002433 
L 307.37737 269.901115 
L 307.500038 269.79957 
L 307.622369 269.697801 
L 307.744363 269.595807 
L 307.866019 269.493589 
L 307.987337 269.391149 
L 308.108315 269.288485 
L 308.228954 269.185601 
L 308.349252 269.082494 
L 308.469209 268.979168 
L 308.588824 268.875621 
L 308.708096 268.771855 
L 308.827024 268.66787 
L 308.945609 268.563667 
L 309.063848 268.459247 
L 309.181741 268.35461 
L 309.299288 268.249756 
L 309.416488 268.144687 
L 309.53334 268.039404 
L 309.649844 267.933906 
L 309.765998 267.828194 
L 309.881803 267.722269 
L 309.997256 267.616133 
L 310.112359 267.509784 
L 310.227109 267.403224 
L 310.341506 267.296454 
L 310.45555 267.189474 
L 310.56924 267.082285 
L 310.682575 266.974888 
L 310.795555 266.867283 
L 310.908178 266.75947 
L 311.020445 266.651452 
L 311.132353 266.543227 
L 311.243904 266.434797 
L 311.355096 266.326163 
L 311.465928 266.217325 
L 311.576399 266.108283 
L 311.68651 265.999039 
L 311.796259 265.889593 
L 311.905646 265.779946 
L 312.01467 265.670099 
L 312.123331 265.560051 
L 312.231627 265.449805 
L 312.339558 265.339359 
L 312.447123 265.228716 
L 312.554323 265.117876 
L 312.661155 265.006839 
L 312.76762 264.895607 
L 312.873716 264.784179 
L 312.979444 264.672557 
L 313.084803 264.560741 
L 313.189791 264.448732 
L 313.294408 264.33653 
L 313.398654 264.224136 
L 313.502528 264.111552 
L 313.60603 263.998777 
L 313.709158 263.885812 
L 313.811912 263.772659 
L 313.914292 263.659316 
L 314.016296 263.545787 
L 314.117925 263.43207 
L 314.219178 263.318167 
L 314.320053 263.204079 
L 314.420551 263.089805 
L 314.52067 262.975347 
L 314.620411 262.860706 
L 314.719772 262.745882 
L 314.818753 262.630876 
L 314.917354 262.515689 
L 315.015573 262.40032 
L 315.113411 262.284772 
L 315.210866 262.169045 
L 315.307938 262.053138 
L 315.404626 261.937054 
L 315.50093 261.820793 
L 315.59685 261.704355 
L 315.692384 261.587742 
L 315.787532 261.470953 
L 315.882293 261.35399 
L 315.976668 261.236853 
L 316.070654 261.119544 
L 316.164253 261.002062 
L 316.257463 260.884408 
L 316.350283 260.766584 
L 316.442713 260.64859 
L 316.534753 260.530426 
L 316.626402 260.412094 
L 316.717659 260.293594 
L 316.808524 260.174926 
L 316.898996 260.056092 
L 316.989075 259.937092 
L 317.07876 259.817928 
L 317.168051 259.698598 
L 317.256947 259.579106 
L 317.345447 259.45945 
L 317.433552 259.339632 
L 317.52126 259.219653 
L 317.608571 259.099513 
L 317.695484 258.979213 
L 317.781999 258.858754 
L 317.868115 258.738136 
L 317.953833 258.617361 
L 318.03915 258.496428 
L 318.124068 258.37534 
L 318.208584 258.254095 
L 318.2927 258.132696 
L 318.376414 258.011143 
L 318.459725 257.889436 
L 318.542634 257.767577 
L 318.625139 257.645566 
L 318.707241 257.523403 
L 318.788938 257.401091 
L 318.870231 257.278628 
L 318.951118 257.156017 
L 319.0316 257.033258 
L 319.111676 256.910351 
L 319.191344 256.787298 
L 319.270606 256.664098 
L 319.34946 256.540753 
L 319.427905 256.417264 
L 319.505942 256.293632 
L 319.58357 256.169856 
L 319.660789 256.045938 
L 319.737597 255.921879 
L 319.813995 255.797679 
L 319.889982 255.673339 
L 319.965557 255.54886 
L 320.04072 255.424243 
L 320.115471 255.299488 
L 320.18981 255.174596 
L 320.263735 255.049568 
L 320.337246 254.924404 
L 320.410343 254.799106 
L 320.483026 254.673674 
L 320.555293 254.548109 
L 320.627145 254.422412 
L 320.698581 254.296583 
L 320.769601 254.170623 
L 320.840204 254.044534 
L 320.910389 253.918315 
L 320.980158 253.791967 
L 321.049508 253.665492 
L 321.118439 253.53889 
L 321.186952 253.412161 
L 321.255045 253.285308 
L 321.322718 253.158329 
L 321.389972 253.031227 
L 321.456805 252.904001 
L 321.523217 252.776653 
L 321.589207 252.649184 
L 321.654776 252.521594 
L 321.719923 252.393883 
L 321.784647 252.266054 
L 321.848948 252.138106 
L 321.912825 252.01004 
L 321.976279 251.881858 
L 322.039309 251.753559 
L 322.101915 251.625145 
L 322.164095 251.496617 
L 322.225851 251.367974 
L 322.28718 251.239219 
L 252.142187 66.439219 
z
" clip-path="url(#pd9698fc4b9)" style="fill: #a3c1d4"/>
   </g>
   <g id="patch_5">
    <path d="M 28.942188 343.639219 
L 28.942188 10.999219 
" style="fill: none; stroke: #000000; stroke-width: 0.8; stroke-linejoin: miter; stroke-linecap: square"/>
   </g>
   <g id="patch_6">
    <path d="M 475.342187 343.639219 
L 475.342187 10.999219 
" style="fill: none; stroke: #000000; stroke-width: 0.8; stroke-linejoin: miter; stroke-linecap: square"/>
   </g>
   <g id="patch_7">
    <path d="M 28.942187 343.639219 
L 475.342187 343.639219 
" style="fill: none; stroke: #000000; stroke-width: 0.8; stroke-linejoin: miter; stroke-linecap: square"/>
   </g>
   <g id="patch_8">
    <path d="M 28.942187 10.999219 
L 475.342187 10.999219 
" style="fill: none; stroke: #000000; stroke-width: 0.8; stroke-linejoin: miter; stroke-linecap: square"/>
   </g>
  </g>
 </g>
 <defs>
  <clipPath id="pd9698fc4b9">
   <rect x="28.942188" y="10.999219" width="446.4" height="332.64"/>
  </clipPath>
 </defs>
</svg>
