<?xml version="1.0" encoding="utf-8" standalone="no"?>
<!DOCTYPE svg PUBLIC "-//W3C//DTD SVG 1.1//EN"
  "http://www.w3.org/Graphics/SVG/1.1/DTD/svg11.dtd">
<svg xmlns:xlink="http://www.w3.org/1999/xlink" width="347.04pt" height="347.04pt" viewBox="0 0 347.04 347.04" xmlns="http://www.w3.org/2000/svg" version="1.1">
 <metadata>
  <rdf:RDF xmlns:dc="http://purl.org/dc/elements/1.1/" xmlns:cc="http://creativecommons.org/ns#" xmlns:rdf="http://www.w3.org/1999/02/22-rdf-syntax-ns#">
   <cc:Work>
    <dc:type rdf:resource="http://purl.org/dc/dcmitype/StillImage"/>
    <dc:date>2026-07-04T22:49:43.887493</dc:date>
    <dc:format>image/svg+xml</dc:format>
    <dc:creator>
     <cc:Agent>
      <dc:title>Matplotlib v3.8.2, https://matplotlib.org/</dc:title>
     </cc:Agent>
    </dc:creator>
   </cc:Work>
  </rdf:RDF>
 </metadata>
 <defs>
  <style type="text/css">*{stroke-linejoin: round; stroke-linecap: butt}</style>
 </defs>
 <g id="figure_1">
  <g id="patch_1">
   <path d="M 0 347.04 
L 347.04 347.04 
L 347.04 -0 
L 0 -0 
z
" style="fill: #ffffff"/>
  </g>
  <g id="axes_1">
   <g id="patch_2">
    <path d="M 62.64 284.4 
L 284.4 284.4 
L 284.4 62.64 
L 62.64 62.64 
z
" clip-path="url(#p4959da465f)" style="fill: #abc5b8"/>
   </g>
   <g id="patch_3">
    <path d="M 121.250667 210.48 
L 120.905466 211.487039 
L 120.579664 212.500521 
L 120.273383 213.520071 
L 119.986735 214.545315 
L 119.719826 215.575873 
L 119.472754 216.611367 
L 119.245609 217.651413 
L 119.038477 218.69563 
L 118.851434 219.743631 
L 118.684547 220.79503 
L 118.53788 221.84944 
L 118.411485 222.906471 
L 118.30541 223.965735 
L 118.219694 225.02684 
L 118.154368 226.089395 
L 118.109456 227.153009 
L 118.084975 228.217289 
L 118.080934 229.281843 
L 118.097335 230.346278 
L 118.134171 231.410203 
L 118.191428 232.473223 
L 118.269086 233.534948 
L 118.367117 234.594987 
L 118.485483 235.652948 
L 118.624142 236.70844 
L 118.783041 237.761076 
L 118.962123 238.810467 
L 119.161322 239.856226 
L 119.380564 240.897967 
L 119.619768 241.935306 
L 119.878846 242.967861 
L 120.157702 243.995251 
L 120.456234 245.017098 
L 120.774332 246.033024 
L 121.111878 247.042654 
L 121.468748 248.045617 
L 121.84481 249.041543 
L 122.239926 250.030065 
L 122.65395 251.010818 
L 123.086729 251.98344 
L 123.538104 252.947573 
L 124.007908 253.902861 
L 124.495968 254.848952 
L 125.002104 255.785498 
L 125.526129 256.712152 
L 126.067851 257.628574 
L 126.627069 258.534425 
L 127.203578 259.429372 
L 127.797164 260.313084 
L 128.407609 261.185235 
L 129.034688 262.045505 
L 129.67817 262.893575 
L 130.337816 263.729133 
L 131.013385 264.551871 
L 131.704627 265.361486 
L 132.411287 266.157679 
L 133.133105 266.940156 
L 133.869813 267.70863 
L 134.621142 268.462816 
L 135.386814 269.202436 
L 136.166545 269.927219 
L 136.96005 270.636896 
L 137.767035 271.331206 
L 138.587203 272.009893 
L 139.420251 272.672707 
L 140.265873 273.319403 
L 141.123756 273.949743 
L 141.993584 274.563494 
L 142.875036 275.160431 
L 143.767788 275.740332 
L 144.67151 276.302985 
L 145.585869 276.848181 
L 146.510527 277.37572 
L 147.445145 277.885408 
L 148.389377 278.377056 
L 149.342875 278.850482 
L 150.305288 279.305513 
L 151.27626 279.741981 
L 152.255434 280.159725 
L 153.242448 280.55859 
L 154.23694 280.93843 
L 155.238541 281.299105 
L 156.246883 281.640481 
L 157.261594 281.962432 
L 158.2823 282.264841 
L 159.308624 282.547596 
L 160.340189 282.810591 
L 161.376612 283.053731 
L 162.417514 283.276926 
L 163.462509 283.480092 
L 164.511212 283.663157 
L 165.563237 283.826051 
L 166.618196 283.968715 
L 167.6757 284.091096 
L 168.735359 284.19315 
L 169.796782 284.274837 
L 170.859577 284.33613 
L 171.923354 284.377004 
L 172.987719 284.397445 
L 174.052281 284.397445 
L 175.116646 284.377004 
L 176.180423 284.33613 
L 177.243218 284.274837 
L 178.304641 284.19315 
L 179.3643 284.091096 
L 180.421804 283.968715 
L 181.476763 283.826051 
L 182.528788 283.663157 
L 183.577491 283.480092 
L 184.622486 283.276926 
L 185.663388 283.053731 
L 186.699811 282.810591 
L 187.731376 282.547596 
L 188.7577 282.264841 
L 189.778406 281.962432 
L 190.793117 281.640481 
L 191.801459 281.299105 
L 192.80306 280.93843 
L 193.797552 280.55859 
L 194.784566 280.159725 
L 195.76374 279.741981 
L 196.734712 279.305513 
L 197.697125 278.850482 
L 198.650623 278.377056 
L 199.594855 277.885408 
L 200.529473 277.37572 
L 201.454131 276.848181 
L 202.36849 276.302985 
L 203.272212 275.740332 
L 204.164964 275.160431 
L 205.046416 274.563494 
L 205.916244 273.949743 
L 206.774127 273.319403 
L 207.619749 272.672707 
L 208.452797 272.009893 
L 209.272965 271.331206 
L 210.07995 270.636896 
L 210.873455 269.927219 
L 211.653186 269.202436 
L 212.418858 268.462816 
L 213.170187 267.70863 
L 213.906895 266.940156 
L 214.628713 266.157679 
L 215.335373 265.361486 
L 216.026615 264.551871 
L 216.702184 263.729133 
L 217.36183 262.893575 
L 218.005312 262.045505 
L 218.632391 261.185235 
L 219.242836 260.313084 
L 219.836422 259.429372 
L 220.412931 258.534425 
L 220.972149 257.628574 
L 221.513871 256.712152 
L 222.037896 255.785498 
L 222.544032 254.848952 
L 223.032092 253.902861 
L 223.501896 252.947573 
L 223.953271 251.98344 
L 224.38605 251.010818 
L 224.800074 250.030065 
L 225.19519 249.041543 
L 225.571252 248.045617 
L 225.928122 247.042654 
L 226.265668 246.033024 
L 226.583766 245.017098 
L 226.882298 243.995251 
L 227.161154 242.967861 
L 227.420232 241.935306 
L 227.659436 240.897967 
L 227.878678 239.856226 
L 228.077877 238.810467 
L 228.256959 237.761076 
L 228.415858 236.70844 
L 228.554517 235.652948 
L 228.672883 234.594987 
L 228.770914 233.534948 
L 228.848572 232.473223 
L 228.905829 231.410203 
L 228.942665 230.346278 
L 228.959066 229.281843 
L 228.955025 228.217289 
L 228.930544 227.153009 
L 228.885632 226.089395 
L 228.820306 225.02684 
L 228.73459 223.965735 
L 228.628515 222.906471 
L 228.50212 221.84944 
L 228.355453 220.79503 
L 228.188566 219.743631 
L 228.001523 218.69563 
L 227.794391 217.651413 
L 227.567246 216.611367 
L 227.320174 215.575873 
L 227.053265 214.545315 
L 226.766617 213.520071 
L 226.460336 212.500521 
L 226.134534 211.487039 
L 225.789333 210.48 
L 173.52 62.64 
z
" clip-path="url(#p4959da465f)" style="fill: #a3c1d4"/>
   </g>
  </g>
 </g>
 <defs>
  <clipPath id="p4959da465f">
   <rect x="7.2" y="7.2" width="332.64" height="332.64"/>
  </clipPath>
 </defs>
</svg>
